<?xml version="1.0" encoding="UTF-8"?>
<svg width="629px" height="640px" viewBox="0 0 629 640" version="1.1" xmlns="http://www.w3.org/2000/svg" xmlns:xlink="http://www.w3.org/1999/xlink">
    <title>t</title>
    <g id="Page-1" stroke="none" stroke-width="1" fill="none" fill-rule="evenodd">
        <g id="t" transform="translate(30.667951, 30.076195)" fill="#FFFFFF" fill-rule="nonzero">
            <path d="M470.733951,345.683938 C412.117563,471.19512 283.46568,543.804777 84.7783002,563.512909 C136.978004,510.977164 189.841926,471.466547 171.870561,422.113777 C153.899196,372.761007 28.9815685,348.845165 18.5151688,199.168676 C125.295389,273.907775 169.341108,295.261406 215.788194,256.324111 C262.23528,217.386816 210.907552,145.305452 252.316848,75.5466339 C272.491608,41.5598829 312.86675,21.0684158 346.64733,16.8094461 C382.202396,12.3267536 424.507727,26.0156393 450.873218,61.6622199 C503.472413,145.231942 510.092658,239.905848 470.733951,345.683938 Z" id="Path-3" stroke="#FFFFFF" stroke-width="56" stroke-linecap="round" stroke-linejoin="round" transform="translate(257.258937, 289.749980) rotate(4.000000) translate(-257.258937, -289.749980) "></path>
            <path d="M484.538985,63.8730604 C501.640864,89.6126007 525.719524,75.7510547 545.166281,69.690787 C564.613038,63.6305194 584.29037,58.890122 590.055152,66.5518514 C595.819934,74.2135808 594.801684,89.7087897 573.631624,103.490128 C552.461564,117.271467 529.469391,164.986941 533.552628,193.964433 C537.635866,222.941925 467.437107,38.1335201 484.538985,63.8730604 Z" id="Path-4" transform="translate(537.458401, 129.231845) rotate(4.000000) translate(-537.458401, -129.231845) "></path>
        </g>
    </g>
</svg>